# AST/ASF file generated using VICON BodyLanguage
# -----------------------------------------------
:version 1.10
:name VICON
:units
  mass 1.0
  length 0.45
  angle deg
:documentation
   .ast/.asf automatically generated from VICON data using
   VICON BodyBuilder and BodyLanguage model FoxedUp or BRILLIANT.MOD
:root
   order TX TY TZ RX RY RZ
   axis XYZ
   position 0 0 0  
   orientation 0 0 0 
:bonedata
  begin
     id 1 
     name lhipjoint
     direction 0.660183 -0.676772 0.325788 
     length 2.75133 
     axis 0 0 0  XYZ
  end
  begin
     id 2 
     name lfemur
     direction 0.34202 -0.939693 0  
     length 7.70317  
     axis 0 0 20  XYZ
    dof rx ry rz
    limits (-160.0 20.0)
           (-70.0 70.0)
           (-60.0 70.0)
  end
  begin
     id 3 
     name ltibia
     direction 0.342105 -0.939662 0   
     length 7.18701   
     axis 0 0 20   XYZ
    dof rx
    limits (-10.0 170.0)
  end
  begin
     id 4 
     name lfoot
     direction 0.14163 -0.389126 0.910232   
     length 2.41719   
     axis -90 7.62852e-016 20   XYZ
    dof rx rz
    limits (-45.0 90.0)
           (-70.0 20.0)
  end
  begin
     id 5 
     name ltoes
     direction 1.53533e-011 -4.21926e-011 1   
     length 1.18611   
     axis -90 7.62852e-016 20   XYZ
    dof rx
    limits (-90.0 20.0)
  end
  begin
     id 6 
     name rhipjoint
     direction -0.6658 -0.67229 0.323631   
     length 2.76968  
     axis 0 0 0  XYZ 
  end
  begin
     id 7 
     name rfemur
     direction -0.34202 -0.939693 0   
     length 7.92547   
     axis 0 0 -20   XYZ
    dof rx ry rz
    limits (-160.0 20.0)
           (-70.0 70.0)
           (-70.0 60.0)
  end
  begin
     id 8 
     name rtibia
     direction -0.342022 -0.939692 0   
     length 7.22641   
     axis 0 0 -20   XYZ
    dof rx
    limits (-10.0 170.0)
 end
 begin
     id 9 
     name rfoot
     direction -0.105675 -0.29034 0.951071   
     length 2.48149  
     axis -90 -7.62852e-016 -20   XYZ
    dof rx rz
    limits (-45.0 90.0)
           (-20.0 70.0)
  end
  begin
     id 10 
     name rtoes
     direction -1.5349e-011 -4.21859e-011 1   
     length 1.23343   
     axis -90 -7.62852e-016 -20   XYZ
    dof rx
    limits (-90.0 20.0)
  end
  begin
     id 11 
     name lowerback
     direction 0.0104173 0.993624 -0.112266   
     length 2.00527   
     axis 0 0 0   XYZ
    dof rx ry rz
    limits (-20.0 45.0)
           (-30.0 30.0)
           (-30.0 30.0)
  end
  begin
     id 12 
     name upperback
     direction 0.00733149 0.999856 -0.0152913   
     length 2.01385   
     axis 0 0 0   XYZ
    dof rx ry rz
    limits (-20.0 45.0)
           (-30.0 30.0)
           (-30.0 30.0)
  end
  begin
     id 13 
     name thorax
     direction 0.0026304 0.999318 0.036841   
     length 2.03734   
     axis 0 0 0   XYZ
    dof rx ry rz
    limits (-20.0 45.0)
           (-30.0 30.0)
           (-30.0 30.0)
  end
  begin
     id 14 
     name lowerneck
     direction 0.0293154 0.998757 0.0403082   
     length 1.65303   
     axis 0 0 0   XYZ
    dof rx ry rz
    limits (-20.0 45.0)
           (-30.0 30.0)
           (-30.0 30.0)
  end
  begin
     id 15 
     name upperneck
     direction -0.0376619 0.998184 -0.0470083   
     length 1.60926   
     axis 0 0 0   XYZ
    dof rx ry rz
    limits (-20.0 45.0)
           (-30.0 30.0)
           (-30.0 30.0)
  end
  begin
     id 16
     name head
     direction -0.0170133 0.999635 -0.0209778  
     length 1.73625  
     axis 0 0 0   XYZ
    dof rx ry rz
    limits (-20.0 45.0)
           (-30.0 30.0)
           (-30.0 30.0)
  end
  begin
     id 17 
     name lclavicle
     direction 0.919857 0.39181 -0.0186333  
     length 3.75313  
     axis 0 0 0   XYZ
    dof ry rz
    limits (-20.0 10.0)
           (0.0 20.0)
  end
  begin
     id 18 
     name lhumerus
     direction 1 -4.48988e-011 1.44029e-027   
     length 5.49313   
     axis 180 -30 -90   XYZ
    dof rx ry rz
    limits (-60.0 90.0)
           (-90.0 90.0)
           (-90.0 90.0)
  end
  begin
     id 19
     name lradius
     direction 1 -4.48924e-011 7.46281e-027   
     length 3.29037   
     axis 180 -30 -90   XYZ
    dof rx
    limits (-10.0 170.0)
  end
  begin
     id 20
     name lwrist
     direction 1 -4.48955e-011 2.19879e-026   
     length 1.64519   
     axis -1.34358e-014 90 90   XYZ
    dof ry
    limits (-180.0 0.0)
 end
  begin
     id 21 
     name lhand
     direction 1 -4.48978e-011 4.39747e-026   
     length 0.729656   
     axis -2.80598e-014 90 90   XYZ
    dof rx rz
    limits (-90.0 90.0)
           (-45.0 45.0)
  end
  begin
     id 22 
     name lfingers
     direction 1 -4.49071e-011 8.79411e-026   
     length 0.588268   
     axis -5.61193e-014 90 90   XYZ
    dof rx
    limits (0.0 90.0)
  end
  begin
     id 23
     name lthumb
     direction 0.707107 -6.34817e-011 0.707107   
     length 0.844638   
     axis -90 45 -9.86923e-015   XYZ
    dof rx rz
    limits (-45.0 45.0)
           (-45.0 45.0)
  end
  begin
     id 24 
     name rclavicle
     direction -0.919898 0.388279 0.0550233   
     length 3.7171  
     axis 0 0 0   XYZ 
    dof ry rz
    limits (-10.0 20.0)
           (-20.0 0.0)
  end
  begin
     id 25 
     name rhumerus
     direction -1 -4.48968e-011 9.98372e-028  
     length 5.23684   
     axis 180 30 90   XYZ
    dof rx ry rz
    limits (-90.0 60.0)
           (-90.0 90.0)
           (-90.0 90.0)
  end
  begin
     id 26 
     name rradius
     direction -1 -4.48956e-011 1.01023e-026   
     length 3.38251   
     axis 180 30 90   XYZ
    dof rx
    limits (-10.0 170.0)
  end
  begin
     id 27 
     name rwrist
     direction -1 -4.4892e-011 2.19886e-026   
     length 1.69126   
     axis -1.34358e-014 -90 -90   XYZ
    dof ry
    limits (-180.0 0.0)
  end
  begin
     id 28
     name rhand
     direction -1 -4.49024e-011 4.39727e-026   
     length 0.691454   
     axis -2.80598e-014 -90 -90   XYZ
    dof rx rz
    limits (-90.0 90.0)
           (-45.0 45.0)
  end
  begin
     id 29
     name rfingers
     direction -1 -4.49097e-011 8.79388e-026   
     length 0.557468   
     axis -5.61193e-014 -90 -90   XYZ
    dof rx
    limits (0.0 90.0)
  end
  begin
     id 30
     name rthumb
     direction -0.707107 -6.34938e-011 0.707107   
     length 0.800416   
     axis -90 -45 9.86923e-015   XYZ
    dof rx rz
    limits (-45.0 45.0)
           (-45.0 45.0)
  end
:hierarchy
  begin
    root lhipjoint rhipjoint lowerback
    lhipjoint lfemur
    lfemur ltibia
    ltibia lfoot
    lfoot ltoes
    rhipjoint rfemur
    rfemur rtibia
    rtibia rfoot
    rfoot rtoes
    lowerback upperback
    upperback thorax
    thorax lowerneck lclavicle rclavicle
    lowerneck upperneck
    upperneck head
    lclavicle lhumerus
    lhumerus lradius
    lradius lwrist
    lwrist lhand lthumb
    lhand lfingers
    rclavicle rhumerus
    rhumerus rradius
    rradius rwrist
    rwrist rhand rthumb
    rhand rfingers
  end

#!OML:ASF H:\BabyWalks\Project 1\Capture day 1\Session 1\baby.ASF
:FULLY-SPECIFIED
:DEGREES
1
root -31.5002 17.7754 -3.45762 -119.711 84.4446 -122.011
lowerback 15.4823 -1.49968 1.44349
upperback 6.06336 -1.26248 3.46878
thorax -2.20096 -0.488005 3.03471
lowerneck -2.69447 1.40171 -0.663805
upperneck -6.88725 1.88799 -2.19864
head -1.66431 1.04814 -0.58547
rclavicle 3.18055e-015 6.75868e-015
rhumerus -35.7718 13.6768 -76.9816
rradius 46.4378
rwrist 3.59798
rhand -6.03301 -16.2269
rfingers 7.12502
rthumb 19.8006 -45.2383
lclavicle 3.18055e-015 6.75868e-015
lhumerus -44.3317 4.05262 82.197
lradius 56.0979
lwrist 1.6561
lhand 3.92647 8.72588
lfingers 7.12502
lthumb 29.3455 36.4297
rfemur -6.67662 2.6438 21.0637
rtibia 18.8609
rfoot -13.3263 -19.7775
rtoes -8.47594
lfemur -14.5882 -5.80938 -8.24872
ltibia 27.8614
lfoot -16.152 -3.34526
ltoes 8.37653
2
root -31.5039 17.756 -3.48398 -116.874 84.4497 -119.122
lowerback 15.6409 -1.47305 1.36581
upperback 6.04875 -1.24194 3.32132
thorax -2.30342 -0.478559 2.92403
lowerneck -2.65894 1.55603 -0.145781
upperneck -6.72043 2.08756 -2.14674
head -1.61096 1.13043 -0.65549
rclavicle -2.62396e-014 8.15017e-015
rhumerus -35.9089 13.3838 -77.1379
rradius 46.7854
rwrist 3.11208
rhand -5.69832 -16.7983
rfingers 7.12502
rthumb 20.1223 -45.7762
lclavicle -2.62396e-014 8.15017e-015
lhumerus -44.3158 4.01644 81.8701
lradius 55.5648
lwrist 1.69976
lhand 3.8413 9.2053
lfingers 7.12502
lthumb 29.2642 36.9233
rfemur -6.52292 2.45227 21.1297
rtibia 18.6624
rfoot -13.0325 -19.4476
rtoes -9.16079
lfemur -14.7646 -5.68328 -8.21167
ltibia 28.4453
lfoot -16.4501 -3.22989
ltoes 5.67318
3
root -31.5057 17.7514 -3.50638 -115.011 84.4507 -117.207
lowerback 15.7107 -1.42595 1.08041
upperback 6.08874 -1.22296 3.26809
thorax -2.29368 -0.472258 3.0276
lowerneck -2.73768 1.50955 -0.637494
upperneck -6.84881 2.05944 -1.61108
head -1.64823 1.12098 -0.407573
rclavicle 3.67752e-015 -2.0276e-014
rhumerus -35.8517 13.0796 -77.1511
rradius 46.7493
rwrist 3.28179
rhand -5.84963 -16.6924
rfingers 7.12502
rthumb 19.9769 -45.6856
lclavicle 3.67752e-015 -2.0276e-014
lhumerus -44.2327 3.98066 81.7109
lradius 55.0065
lwrist 1.77734
lhand 3.78517 9.24103
lfingers 7.12502
lthumb 29.2106 36.9684
rfemur -6.53504 2.46539 21.1333
rtibia 18.7492
rfoot -13.058 -19.2535
rtoes -9.03527
lfemur -14.7992 -5.62702 -8.20684
ltibia 28.7513
lfoot -16.5965 -3.10022
ltoes 3.15173
4
root -31.5121 17.7476 -3.53196 -112.376 84.4425 -114.618
lowerback 15.8025 -1.42978 0.964591
upperback 6.0668 -1.2506 3.15132
thorax -2.36449 -0.487723 2.97754
lowerneck -2.79423 1.5788 -0.634228
upperneck -6.86504 2.16544 -1.35764
head -1.64574 1.16952 -0.329787
rclavicle -3.57812e-014 -7.7526e-015
rhumerus -35.9409 13.033 -77.3486
rradius 46.9021
rwrist 3.2764
rhand -6.15259 -16.5699
rfingers 7.12502
rthumb 19.6857 -45.5932
lclavicle -3.57812e-014 -7.7526e-015
lhumerus -44.1476 4.02852 81.4187
lradius 54.4415
lwrist 1.77359
lhand 3.78506 9.69217
lfingers 7.12502
lthumb 29.2105 37.4195
rfemur -6.69604 2.41054 21.1403
rtibia 18.8199
rfoot -12.978 -18.9434
rtoes -9.05436
lfemur -14.9722 -5.49816 -8.17604
ltibia 29.0912
lfoot -16.8062 -2.98729
ltoes 2.68742
5
root -31.516 17.7489 -3.55665 -108.53 84.3984 -110.807
lowerback 15.8164 -1.36124 0.837937
upperback 6.05684 -1.18429 3.10711
thorax -2.38356 -0.457338 2.99164
lowerneck -2.59846 1.65027 -0.31085
upperneck -6.98959 2.25226 -1.39059
head -1.71513 1.20668 -0.39764
rclavicle 1.06847e-014 -7.85199e-015
rhumerus -35.9489 12.9427 -77.4819
rradius 46.9692
rwrist 3.29487
rhand -6.22448 -16.3778
rfingers 7.12502
rthumb 19.6165 -45.4081
lclavicle 1.06847e-014 -7.85199e-015
lhumerus -44.0404 3.9953 81.2113
lradius 53.8456
lwrist 1.70871
lhand 3.82978 9.53879
lfingers 7.12502
lthumb 29.2532 37.2587
rfemur -6.93238 2.45007 21.2213
rtibia 19.0069
rfoot -13.1005 -18.3911
rtoes -8.34123
lfemur -15.0416 -5.33849 -8.03335
ltibia 29.3418
lfoot -17.1218 -2.92182
ltoes 2.97571
6
root -31.5201 17.7441 -3.58087 -105.456 84.3665 -107.756
lowerback 15.8667 -1.31745 0.679386
upperback 6.04265 -1.1556 3.03119
thorax -2.42475 -0.445573 2.9979
lowerneck -2.56016 1.69429 -0.304837
upperneck -7.0551 2.32175 -1.17835
head -1.74473 1.23799 -0.33436
rclavicle -1.58531e-014 -1.86361e-014
rhumerus -35.9995 12.86 -77.6387
rradius 47.0866
rwrist 3.2736
rhand -6.32654 -16.2829
rfingers 7.12502
rthumb 19.5184 -45.3232
lclavicle -1.58531e-014 -1.86361e-014
lhumerus -43.9566 3.97987 80.9747
lradius 53.2817
lwrist 1.64485
lhand 3.8595 9.64451
lfingers 7.12502
lthumb 29.2816 37.3595
rfemur -7.13516 2.41452 21.2573
rtibia 19.2337
rfoot -13.2339 -17.9378
rtoes -7.82473
lfemur -15.1265 -5.18608 -7.96719
ltibia 29.6024
lfoot -17.3426 -2.84262
ltoes 2.40123
7
root -31.524 17.7397 -3.60463 -102.266 84.3324 -104.6
lowerback 15.9033 -1.26922 0.514771
upperback 6.02257 -1.12284 2.9582
thorax -2.46496 -0.432011 3.0097
lowerneck -2.53388 1.72936 -0.355219
upperneck -7.12502 2.38143 -0.94919
head -1.77487 1.26552 -0.256292
rclavicle -2.23524e-014 2.56479e-014
rhumerus -36.0554 12.8296 -77.8161
rradius 47.2057
rwrist 3.25771
rhand -6.42835 -16.1567
rfingers 7.12502
rthumb 19.4205 -45.2069
lclavicle -2.23524e-014 2.56479e-014
lhumerus -43.8703 3.96555 80.7395
lradius 52.7251
lwrist 1.53227
lhand 3.89157 9.73641
lfingers 7.12502
lthumb 29.3122 37.446
rfemur -7.37465 2.37878 21.2855
rtibia 19.5023
rfoot -13.4413 -17.4312
rtoes -7.08228
lfemur -15.2153 -5.01153 -7.90702
ltibia 29.8564
lfoot -17.5637 -2.77392
ltoes 2.05096
8
root -31.5277 17.7351 -3.62785 -98.9336 84.2963 -101.308
lowerback 15.933 -1.2152 0.348287
upperback 5.99539 -1.08351 2.88509
thorax -2.50939 -0.415294 3.02119
lowerneck -2.51822 1.76284 -0.417979
upperneck -7.18333 2.43902 -0.728915
head -1.7998 1.29232 -0.178672
rclavicle 1.39025e-014 -2.56929e-014
rhumerus -36.1272 12.8563 -78.019
rradius 47.3433
rwrist 3.21133
rhand -6.50725 -16.0318
rfingers 7.12502
rthumb 19.3447 -45.0896
lclavicle 1.39025e-014 -2.56929e-014
lhumerus -43.785 3.95224 80.5012
lradius 52.1803
lwrist 1.36476
lhand 3.92336 9.82815
lfingers 7.12502
lthumb 29.3425 37.5325
rfemur -7.63299 2.34057 21.3058
rtibia 19.7914
rfoot -13.706 -16.8796
rtoes -6.177
lfemur -15.3085 -4.81386 -7.85717
ltibia 30.1157
lfoot -17.7845 -2.70604
ltoes 1.82912
9
root -31.531 17.7308 -3.65029 -95.4796 84.2566 -97.8969
lowerback 15.9534 -1.15428 0.177165
upperback 5.96545 -1.03636 2.81324
thorax -2.55215 -0.394771 3.03505
lowerneck -2.51932 1.79069 -0.51209
upperneck -7.23376 2.48965 -0.512016
head -1.81998 1.31646 -0.0965493
rclavicle -2.1593e-014 3.30976e-014
rhumerus -36.2096 12.936 -78.2424
rradius 47.4909
rwrist 3.13932
rhand -6.56057 -15.9109
rfingers 7.12502
rthumb 19.2934 -44.9739
lclavicle -2.1593e-014 3.30976e-014
lhumerus -43.702 3.94117 80.2637
lradius 51.6563
lwrist 1.15087
lhand 3.94098 9.89211
lfingers 7.12502
lthumb 29.3594 37.5935
rfemur -7.91357 2.30895 21.3181
rtibia 20.1242
rfoot -14.025 -16.2949
rtoes -5.13793
lfemur -15.3856 -4.60217 -7.81967
ltibia 30.3494
lfoot -17.9835 -2.62492
ltoes 1.61377
10
root -31.534 17.7268 -3.67172 -91.9727 84.2132 -94.4364
lowerback 15.9653 -1.09231 0.00766647
upperback 5.93179 -0.98832 2.7375
thorax -2.5946 -0.373784 3.04355
lowerneck -2.54104 1.81499 -0.641324
upperneck -7.27834 2.53634 -0.295457
head -1.83549 1.33957 -0.00833995
rclavicle 3.18055e-015 -1.67973e-014
rhumerus -36.2999 13.077 -78.4955
rradius 47.6405
rwrist 3.04029
rhand -6.59799 -15.7944
rfingers 7.12502
rthumb 19.2574 -44.8609
lclavicle 3.18055e-015 -1.67973e-014
lhumerus -43.6236 3.94451 80.0153
lradius 51.1564
lwrist 0.893528
lhand 3.93831 9.94371
lfingers 7.12502
lthumb 29.3568 37.6455
rfemur -8.20972 2.28262 21.3202
rtibia 20.4879
rfoot -14.4068 -15.6902
rtoes -4.08499
lfemur -15.4483 -4.38459 -7.79916
ltibia 30.5523
lfoot -18.1583 -2.5195
ltoes 1.36695
